<svg width="2425" height="1876" viewBox="0 0 2425 1876" fill="none" xmlns="http://www.w3.org/2000/svg">
<path d="M687.857 1498.33V1318.19H1455.39C1499.25 1318.19 1521.18 1293.65 1521.18 1244.57C1521.18 1196.53 1499.25 1172.52 1455.39 1172.52H958.845C865.905 1172.52 795.417 1151.63 747.381 1109.86C699.344 1067.04 675.326 1005.95 675.326 926.59C675.326 846.182 699.344 784.57 747.381 741.755C796.461 697.895 866.949 675.966 958.845 675.966H1673.12V856.102H969.81C924.906 856.102 902.454 878.032 902.454 921.891C902.454 943.821 908.72 961.051 921.251 973.582C933.783 986.113 949.969 992.379 969.81 992.379H1496.12C1577.57 992.379 1639.71 1013.79 1682.52 1056.6C1726.38 1098.37 1748.31 1159.46 1748.31 1239.87C1748.31 1321.32 1726.38 1385.02 1682.52 1430.97C1638.66 1475.88 1576.53 1498.33 1496.12 1498.33H687.857Z" fill="#0F0B30"/>
<path d="M2424.02 1156.18L2191.79 1875.06H1928L2229.25 937.53L1928 0H2191.79L2424.02 720.058V1156.18Z" fill="#88DADA"/>
<path d="M0 1156.17L232.223 1875.03H496L194.763 937.53L496 0.0302734H232.223L0 720.065V1156.17Z" fill="#88DADA"/>
</svg>
